name C:\Users\u0101727\Documents\MyRepositories\upper-imu-dc\Results\main_tracking\Case_10\FLX01_orientations_groundFrame.mot
datacolumns 13
datarows 14
range 2.01000000 2.14000000
endheader 
time	radius_imu_[0][0]	radius_imu_[0][1]	radius_imu_[0][2]	radius_imu_[1][0]	radius_imu_[1][1]	radius_imu_[1][2]	radius_imu_[2][0]	radius_imu_[2][1]	radius_imu_[2][2]	radius_imu_x	radius_imu_y	radius_imu_z	
          2.01000000	          0.52056316	         -0.83560673	         -0.17542915	         -0.46890228	         -0.45148973	          0.75913613	         -0.71354372	         -0.31291918	         -0.62684683	         -2.26103477	         -0.17634166	          1.01365361	
          2.02000000	          0.52789349	         -0.82963238	         -0.18176519	         -0.46597702	         -0.46184708	          0.75469378	         -0.71006611	         -0.31369953	         -0.63039568	         -2.26669411	         -0.18278124	          1.00411377	
          2.03000000	          0.53549139	         -0.82354853	         -0.18712772	         -0.46443502	         -0.47222204	          0.74920388	         -0.70537159	         -0.31428356	         -0.63535561	         -2.27415199	         -0.18823740	          0.99426334	
          2.04000000	          0.54340636	         -0.81735951	         -0.19139737	         -0.46436591	         -0.48261513	          0.74259474	         -0.69933814	         -0.31465229	         -0.64181002	         -2.28352266	         -0.19258564	          0.98406529	
          2.05000000	          0.55160821	         -0.81108139	         -0.19461592	         -0.46559798	         -0.49299989	          0.73496233	         -0.69205990	         -0.31479847	         -0.64958065	         -2.29460471	         -0.19586587	          0.97355825	
          2.06000000	          0.55999650	         -0.80473946	         -0.19697291	         -0.46775522	         -0.50333102	          0.72654177	         -0.68381940	         -0.31472574	         -0.65828469	         -2.30694508	         -0.19826938	          0.96284550	
          2.07000000	          0.56843100	         -0.79836282	         -0.19875363	         -0.47036524	         -0.51355712	          0.71764589	         -0.67501314	         -0.31444538	         -0.66744391	         -2.31996578	         -0.20008601	          0.95206475	
          2.08000000	          0.57676883	         -0.79197851	         -0.20026921	         -0.47297440	         -0.52363313	          0.70859266	         -0.66605775	         -0.31397195	         -0.67660083	         -2.33310303	         -0.20163269	          0.94135250	
          2.09000000	          0.58489151	         -0.78560741	         -0.20179918	         -0.47522418	         -0.53352779	          0.69964997	         -0.65731568	         -0.31331948	         -0.68539551	         -2.34590316	         -0.20319455	          0.93081896	
          2.10000000	          0.59271185	         -0.77926352	         -0.20357072	         -0.47686391	         -0.54322364	          0.69102017	         -0.64907124	         -0.31250032	         -0.69357774	         -2.35804164	         -0.20500364	          0.92054240	
          2.11000000	          0.60016280	         -0.77295610	         -0.20577531	         -0.47771273	         -0.55271132	          0.68286217	         -0.64155682	         -0.31152699	         -0.70096775	         -2.36927742	         -0.20725591	          0.91058016	
          2.12000000	          0.60718324	         -0.76669245	         -0.20859339	         -0.47761713	         -0.56198328	          0.67531967	         -0.63498849	         -0.31041501	         -0.70741228	         -2.37939989	         -0.21013649	          0.90098230	
          2.13000000	          0.61371732	         -0.76047829	         -0.21218815	         -0.47645144	         -0.57103273	          0.66851750	         -0.62955943	         -0.30918342	         -0.71278365	         -2.38823023	         -0.21381356	          0.89179261	
          2.14000000	          0.61973382	         -0.75431482	         -0.21665441	         -0.47417082	         -0.57985917	          0.66251443	         -0.62537350	         -0.30785141	         -0.71703242	         -2.39569270	         -0.21838617	          0.88303161	
